<?xml version="1.0" encoding="UTF-8" standalone="no"?>
<svg
   viewBox="0 0 24 24"
   width="24"
   height="24"
   version="1.1"
   id="svg4"
   xmlns="http://www.w3.org/2000/svg"
   xmlns:svg="http://www.w3.org/2000/svg">
  <path
     d="M 7.3451389,3.5626324 C 6.7809047,5.0817047 5.8477662,6.4488577 4.5457121,7.6641244 L 5.6524586,8.5104646 C 5.8694658,8.4670209 6.4770992,7.7075236 7.4753366,6.2318505 H 8.3216767 C 8.7991014,6.9262823 9.2114161,7.6424137 9.558632,8.3802559 L 10.860697,7.6641244 9.8190495,6.2318505 H 12.097652 V 4.9948952 H 8.0612703 L 8.5820942,3.9532475 Z m 6.7056001,0 c -0.520824,1.4756731 -1.410563,2.8211375 -2.669218,4.0363821 l 1.106747,0.8463402 c 0.737842,-0.6944318 1.302065,-1.4322629 1.69268,-2.2135042 h 1.106746 c 0.477425,0.6510326 0.889751,1.3454644 1.236967,2.0832954 L 17.696506,7.5990145 C 17.392701,7.121601 17.067184,6.6658759 16.719968,6.2318505 h 2.734317 V 4.9948952 H 14.831981 C 15.005588,4.6476793 15.157497,4.3004634 15.287694,3.9532475 Z M 7.9961604,8.1198384 6.8894139,8.770871 c 0.6076334,0.6076223 1.0633473,1.2152556 1.367164,1.822889 L 9.4935332,9.9427274 C 9.1029181,9.2916948 8.6037938,8.6840726 7.9961604,8.1198384 Z m 2.2135046,0.5859338 v 1.1067465 h 7.096226 V 16.51813 c 0,0.607622 -0.151908,0.911439 -0.455725,0.911439 -0.434014,0 -0.998237,-0.02167 -1.692669,-0.06511 l 0.325516,1.236966 c 0.607622,0.04344 1.128446,0.06511 1.562472,0.06511 0.520824,0 0.911439,-0.151908 1.171845,-0.455725 0.260418,-0.303805 0.390626,-0.737831 0.390626,-1.302054 V 8.7057833 H 10.209665 Z M 5.7826674,10.463551 v 8.202973 h 1.302054 v -8.202973 z m 3.1900419,0.716132 v 5.598853 h 5.9894797 v -5.598853 z m 1.2369557,1.106746 h 3.515558 v 1.106758 h -3.515558 z m 0,2.148406 h 3.515558 v 1.236955 h -3.515558 z m -7.0983935,5.34278 v 1.111091 H 20.888726 v -1.111091 z"
     />
</svg>
