<?xml version="1.0" encoding="UTF-8" standalone="no"?>
<svg
   viewBox="0 0 24 24"
   width="24"
   height="24"
   version="1.1"
   id="svg4"
   xmlns="http://www.w3.org/2000/svg"
   xmlns:svg="http://www.w3.org/2000/svg">
  <defs
     id="defs8" />
  <path
     class="ColorScheme-Text"
     style="fill:currentColor;fill-opacity:1;stroke:none;stroke-width:1"
     d="M 6.4662436,3.6277312 C 6.1190277,4.4089725 5.4679951,5.1685032 4.5131569,5.9063342 l 0.911439,0.7161425 C 5.8586213,6.31866 6.270936,5.9063453 6.6615512,5.3855214 H 12.71613 V 4.4089725 H 7.3125838 C 7.3560274,4.2787638 7.4211373,4.1268666 7.5078913,3.9532475 Z m 7.9425664,0 c -0.434025,1.3888636 -1.128457,2.6258189 -2.083295,3.7108769 l 0.78123,0.8463402 0.651033,-0.7812413 c 0.390615,0.6510326 0.84634,1.2152556 1.367164,1.6926803 -0.694432,0.564223 -1.519073,1.0633587 -2.473911,1.4973727 l 0.911439,0.976538 c 0.954849,-0.520824 1.779479,-1.063347 2.473911,-1.6275706 0.781241,0.6076226 1.649281,1.1501456 2.604119,1.6275706 L 19.48684,10.52865 C 18.445192,10.094625 17.555453,9.6172111 16.817622,9.0963873 17.555453,8.2717467 18.076277,7.3386081 18.380094,6.2969604 h 0.911439 V 5.1902028 h -4.2968 L 15.515557,3.9532475 Z M 6.3360349,6.1667517 5.9454197,8.0547396 H 4.6433657 V 9.0963873 H 5.7501122 L 5.3594971,11.049474 h 4.8827219 v 0.390615 h 1.106747 l 0.06511,-0.390615 h 0.585922 v -0.976549 h -0.520823 l 0.130208,-0.9765377 h 1.041648 V 8.0547396 h -0.91145 l 0.260417,-1.8879879 z m 8.1378741,0.1302087 h 2.669229 C 16.92612,7.0347914 16.535505,7.7292233 15.971282,8.3802559 15.407059,7.8160217 14.886235,7.1650002 14.40881,6.4271692 14.452254,6.3837255 14.47392,6.340393 14.47392,6.2969604 Z M 7.3125838,7.0781907 H 8.1589239 C 8.3759311,7.3386081 8.5929383,7.6641133 8.8099565,8.0547396 H 7.1172762 Z m 1.8879878,0 H 10.828142 L 10.697933,8.0547396 H 9.8516042 Z M 6.9870675,9.0963873 H 7.8334076 C 8.0504148,9.3567936 8.2891327,9.6823211 8.549539,10.072925 H 6.7917599 Z m 1.9530867,0 H 10.567736 L 10.372428,10.072925 H 9.5260879 C 9.35248,9.7257092 9.1571724,9.4001929 8.9401542,9.0963873 Z M 15.25515,11.244782 c -1.388863,0.82464 -2.343713,1.280354 -2.864536,1.367164 -0.781231,0.130208 -2.170094,0.217007 -4.1665913,0.260417 0.6944319,-0.217018 1.3888637,-0.542523 2.0832953,-0.976549 l -0.84634,-0.585923 c -0.8680397,0.607623 -1.9530867,1.085047 -3.2551408,1.432263 l 0.1301977,0.911439 c 1.3020652,0 2.6258189,-0.04344 3.9712831,-0.130208 -1.3888634,0.520834 -3.0815438,0.976548 -5.0780297,1.367164 l 0.1953076,1.041647 c 1.9530867,0 3.9278841,-0.06511 5.9243701,-0.195307 v 1.367164 c 0,0.347216 -0.130198,0.520824 -0.390615,0.520824 -0.477425,0 -0.954838,-0.06511 -1.4322631,-0.195308 l 0.1953076,1.171856 c 0.3906155,0.08678 0.8029295,0.130198 1.2369555,0.130198 0.694432,0 1.150157,-0.108553 1.367164,-0.325516 0.217007,-0.216996 0.325516,-0.585923 0.325516,-1.106747 v -1.69268 c 1.475662,-0.130198 2.951335,-0.303806 4.426997,-0.520824 0.347216,0.347216 0.651033,0.716132 0.911439,1.106758 l 1.236967,-0.585934 c -0.86804,-1.041648 -1.909688,-1.996486 -3.124943,-2.864526 l -1.171857,0.520824 c 0.477425,0.303806 0.911439,0.651022 1.302054,1.041648 -1.736079,0.347216 -4.405297,0.585923 -8.0076653,0.716131 2.9079363,-0.651032 5.5988533,-1.67098 8.0727753,-3.059844 z m -0.976549,4.752524 -0.520823,1.041648 c 1.432262,0.347216 2.864536,0.82464 4.296799,1.432263 l 0.520824,-1.106758 c -1.345464,-0.520813 -2.777727,-0.976538 -4.2968,-1.367153 z M 9.0703629,16.127504 C 7.811708,16.648339 6.4228444,17.060654 4.903772,17.364459 l 0.7812414,1.106758 c 1.64927,-0.434026 3.0598332,-0.998249 4.2316897,-1.692681 z m -5.9590916,3.650111 v 1.111091 H 20.888726 v -1.111091 z"
     id="path4357" />
</svg>
