<?xml version="1.0" encoding="UTF-8" standalone="no"?>
<svg
   viewBox="0 0 24 24"
   width="24"
   height="24"
   version="1.1"
   id="svg4"
   xmlns="http://www.w3.org/2000/svg"
   xmlns:svg="http://www.w3.org/2000/svg">
  <defs
     id="defs8" />
  <path
     d="m 10,20 h 4 c 0,1.1 -0.9,2 -2,2 -1.1,0 -2,-0.9 -2,-2 z M 8,19 h 8 V 17 H 8 Z M 19.5,9.5 c 0,3.82 -2.66,5.86 -3.77,6.5 H 8.27 C 7.16,15.36 4.5,13.32 4.5,9.5 4.5,5.36 7.86,2 12,2 c 4.14,0 7.5,3.36 7.5,7.5 z m -2,0 C 17.5,6.47 15.03,4 12,4 8.97,4 6.5,6.47 6.5,9.5 c 0,2.47 1.49,3.89 2.35,4.5 h 6.3 c 0.86,-0.61 2.35,-2.03 2.35,-4.5 z"
     id="path2-3" />
</svg>
