<?xml version="1.0" encoding="UTF-8" standalone="no"?>
<svg
   viewBox="0 0 24 24"
   width="24"
   height="24"
   version="1.1"
   id="svg4"
   xmlns="http://www.w3.org/2000/svg"
   xmlns:svg="http://www.w3.org/2000/svg">
  <defs
     id="defs8" />
  <path
     id="ellipse4233"
     style="fill:currentColor;fill-opacity:1;stroke:none;stroke-width:1"
     class="ColorScheme-Text"
     d="M 8.1113281 9.7773438 A 1.6666363 1.6666363 0 0 0 6.4453125 11.445312 A 1.6666363 1.6666363 0 0 0 8.1113281 13.111328 A 1.6666363 1.6666363 0 0 0 9.7773438 11.445312 A 1.6666363 1.6666363 0 0 0 8.1113281 9.7773438 z M 15.888672 9.7773438 A 1.6666363 1.6666363 0 0 0 14.222656 11.445312 A 1.6666363 1.6666363 0 0 0 15.888672 13.111328 A 1.6666363 1.6666363 0 0 0 15.941406 13.109375 C 15.348917 14.152923 14.443359 14.888672 14.443359 14.888672 L 15.111328 15.777344 C 15.111328 15.777344 17.297265 14.192895 17.513672 11.808594 A 1.6666363 1.6666363 0 0 0 17.554688 11.445312 A 1.6666363 1.6666363 0 0 0 15.888672 9.7773438 z " />
</svg>
