<?xml version="1.0" encoding="UTF-8" standalone="no"?>
<svg
   viewBox="0 0 24 24"
   width="24"
   height="24"
   version="1.1"
   id="svg4"
   xmlns="http://www.w3.org/2000/svg"
   xmlns:svg="http://www.w3.org/2000/svg">
  <defs
     id="defs8" />
  <path
     id="path4251"
     style="fill:currentColor;fill-opacity:1;stroke:none;stroke-width:1"
     class="ColorScheme-Text"
     d="M 8.1113281 8.6660156 C 6.5838119 8.6660156 5.3339844 9.9177963 5.3339844 11.445312 C 5.3339844 12.972829 6.5838119 14.222656 8.1113281 14.222656 C 9.6388442 14.222656 10.888672 12.97283 10.888672 11.445312 C 10.888672 9.9177963 9.6388442 8.6660156 8.1113281 8.6660156 z M 15.888672 8.6660156 C 14.361156 8.6660156 13.111328 9.9177955 13.111328 11.445312 C 13.111328 12.972829 14.361156 14.222656 15.888672 14.222656 C 16.294432 14.222656 16.676997 14.128882 17.025391 13.970703 C 16.646587 14.740911 16.115054 15.266846 15.574219 15.638672 C 14.579693 16.322404 13.597656 16.449219 13.597656 16.449219 L 13.736328 17.550781 C 13.736328 17.550781 14.97547 17.398706 16.203125 16.554688 C 17.430792 15.710669 18.666016 14.109874 18.666016 11.445312 C 18.666016 9.9177955 17.416189 8.6660156 15.888672 8.6660156 z M 8.1113281 9.7773438 C 9.0383662 9.7773438 9.7773438 10.518275 9.7773438 11.445312 C 9.7773438 12.372352 9.0383662 13.111328 8.1113281 13.111328 C 7.1842899 13.111328 6.4453125 12.372351 6.4453125 11.445312 C 6.4453125 10.518275 7.1842899 9.7773438 8.1113281 9.7773438 z M 15.888672 9.7773438 C 16.815711 9.7773438 17.554688 10.518273 17.554688 11.445312 C 17.554688 12.37235 16.815711 13.111328 15.888672 13.111328 C 14.961634 13.111328 14.222656 12.372351 14.222656 11.445312 C 14.222656 10.518273 14.961634 9.7773438 15.888672 9.7773438 z " />
</svg>
