<?xml version="1.0" encoding="UTF-8" standalone="no"?>
<svg
   viewBox="0 0 24 24"
   width="24"
   height="24"
   version="1.1"
   id="svg8"
   sodipodi:docname="clipboard.svg"
   inkscape:version="1.1.2 (0a00cf5339, 2022-02-04, custom)"
   xmlns:inkscape="http://www.inkscape.org/namespaces/inkscape"
   xmlns:sodipodi="http://sodipodi.sourceforge.net/DTD/sodipodi-0.dtd"
   xmlns="http://www.w3.org/2000/svg"
   xmlns:svg="http://www.w3.org/2000/svg">
  <defs
     id="defs12" />
  <sodipodi:namedview
     id="namedview10"
     pagecolor="#ffffff"
     bordercolor="#666666"
     borderopacity="1.0"
     inkscape:pageshadow="2"
     inkscape:pageopacity="0.0"
     inkscape:pagecheckerboard="0"
     showgrid="false"
     inkscape:zoom="26.625"
     inkscape:cx="12"
     inkscape:cy="11.43662"
     inkscape:current-layer="svg8" />
  <path
     d="M 19,3 H 14.82 C 14.4,1.84 13.3,1 12,1 10.7,1 9.6,1.84 9.18,3 H 5 C 3.9,3 3,3.9 3,5 v 15 c 0,1.1 0.9,2 2,2 h 14 c 1.1,0 2,-0.9 2,-2 V 5 C 21,3.9 20.1,3 19,3 Z m 0,17 H 5 V 5 H 7 V 7 H 17 V 5 h 2 z"
     id="path2"
     style="display:inline"
     sodipodi:nodetypes="scscssssssssccccccccc" />
  <path
     d="m 7,15 h 7 v 2 H 7 Z m 0,-4 h 10 v 2 H 7 Z M 7,7 H 17 V 9 H 7 Z M 19,3 H 14.82 C 14.4,1.84 13.3,1 12,1 10.7,1 9.6,1.84 9.18,3 H 5 C 4.86,3 4.73,3.01 4.6,3.04 4.21,3.12 3.86,3.32 3.59,3.59 3.41,3.77 3.26,3.99 3.16,4.23 3.06,4.46 3,4.72 3,5 v 14 c 0,0.27 0.06,0.54 0.16,0.78 0.1,0.24 0.25,0.45 0.43,0.64 0.27,0.27 0.62,0.47 1.01,0.55 C 4.73,20.99 4.86,21 5,21 h 14 c 1.1,0 2,-0.9 2,-2 V 5 C 21,3.9 20.1,3 19,3 Z M 12,2.75 c 0.41,0 0.75,0.34 0.75,0.75 0,0.41 -0.34,0.75 -0.75,0.75 -0.41,0 -0.75,-0.34 -0.75,-0.75 0,-0.41 0.34,-0.75 0.75,-0.75 z M 19,19 H 5 V 5 h 14 z"
     id="path4"
     style="display:none"
     sodipodi:nodetypes="cccccccccccccccscscscscsssccssssssssssccccc" />
  <path
     d="m 19.14,12.94 c 0.04,-0.3 0.06,-0.61 0.06,-0.94 0,-0.32 -0.02,-0.64 -0.07,-0.94 L 21.16,9.48 C 21.34,9.34 21.39,9.07 21.28,8.87 L 19.36,5.55 C 19.24,5.33 18.99,5.26 18.77,5.33 L 16.38,6.29 C 15.88,5.91 15.35,5.59 14.76,5.35 L 14.4,2.81 C 14.36,2.57 14.16,2.4 13.92,2.4 H 10.08 C 9.84,2.4 9.65,2.57 9.61,2.81 L 9.25,5.35 C 8.66,5.59 8.12,5.92 7.63,6.29 L 5.24,5.33 C 5.02,5.25 4.77,5.33 4.65,5.55 L 2.74,8.87 C 2.62,9.08 2.66,9.34 2.86,9.48 l 2.03,1.58 C 4.84,11.36 4.8,11.69 4.8,12 c 0,0.31 0.02,0.64 0.07,0.94 l -2.03,1.58 c -0.18,0.14 -0.23,0.41 -0.12,0.61 l 1.92,3.32 c 0.12,0.22 0.37,0.29 0.59,0.22 l 2.39,-0.96 c 0.5,0.38 1.03,0.7 1.62,0.94 l 0.36,2.54 c 0.05,0.24 0.24,0.41 0.48,0.41 h 3.84 c 0.24,0 0.44,-0.17 0.47,-0.41 l 0.36,-2.54 c 0.59,-0.24 1.13,-0.56 1.62,-0.94 l 2.39,0.96 c 0.22,0.08 0.47,0 0.59,-0.22 l 1.92,-3.32 c 0.12,-0.22 0.07,-0.47 -0.12,-0.61 z M 12,15.6 c -1.98,0 -3.6,-1.62 -3.6,-3.6 0,-1.98 1.62,-3.6 3.6,-3.6 1.98,0 3.6,1.62 3.6,3.6 0,1.98 -1.62,3.6 -3.6,3.6 z"
     id="path6"
     style="display:none" />
  <circle
     style="display:inline;fill:#ffffff;fill-opacity:1;stroke-width:1.00157"
     id="path1699"
     cx="12"
     cy="3.75"
     r="0.75" />
  <path
     d="m 7.0001776,16.5 h 7.0000004 v 2 H 7.0001776 Z m 0,-4 H 17.000178 v 2 H 7.0001776 Z m 0,-4 H 17.000178 v 2 H 7.0001776 Z"
     style="display:inline"
     id="path2203" />
</svg>
