<?xml version="1.0" encoding="UTF-8" standalone="no"?>
<svg
   viewBox="0 0 24 24"
   width="24"
   height="24"
   version="1.1"
   id="svg10"
   xmlns="http://www.w3.org/2000/svg"
   xmlns:svg="http://www.w3.org/2000/svg">
  <defs
     id="defs14" />
  <path
     d="M 9.1952179,10.913098 H 7.8954465 V 4.6458815 L 5.9780151,5.2999451 V 4.2009037 L 9.0287182,3.0804176 h 0.1664997 z"
     id="path2" />
  <path
     d="m 18.371303,10.913098 h -5.258166 v -0.895317 l 2.604914,-2.8360627 q 0.56395,-0.6272577 0.800273,-1.0454295 0.241693,-0.4235331 0.241693,-0.8470661 0,-0.5575624 -0.316887,-0.9006778 -0.311515,-0.3431153 -0.84324,-0.3431153 -0.633773,0 -0.982885,0.3860047 -0.349112,0.3860049 -0.349112,1.056152 H 12.96275 q 0,-0.7130366 0.322258,-1.2813214 0.327628,-0.573646 0.929175,-0.8899554 Q 14.821102,3 15.610632,3 q 1.138643,0 1.7939,0.573646 0.660628,0.5682847 0.660628,1.5761862 0,0.5843683 -0.333,1.2277096 -0.327628,0.63798 -1.079562,1.4528791 l -1.91206,2.0426081 h 3.630765 z"
     id="path4" />
  <path
     d="m 7.1703674,16.394764 h 0.7949015 q 0.6015472,-0.0054 0.9506593,-0.310949 0.3544831,-0.305586 0.3544831,-0.884593 0,-0.557563 -0.2954026,-0.86315 -0.2900316,-0.310948 -0.8915787,-0.310948 -0.5263538,0 -0.864724,0.305586 -0.3383702,0.300227 -0.3383702,0.788094 H 5.5751934 q 0,-0.600452 0.3168864,-1.09368 0.3222574,-0.493228 0.8915787,-0.766649 0.5746923,-0.278781 1.2836586,-0.278781 1.1708684,0 1.836867,0.589729 0.6713689,0.584369 0.6713689,1.629799 0,0.525395 -0.33837,0.991818 -0.3329989,0.46106 -0.8647235,0.696952 0.6445155,0.219809 0.9775145,0.691593 0.33837,0.471783 0.33837,1.125847 0,1.050791 -0.7250789,1.672687 -0.7197086,0.621897 -1.895948,0.621897 -1.1279008,0 -1.847609,-0.600453 Q 5.5,19.799112 5.5,18.801933 h 1.3051424 q 0,0.514672 0.3437411,0.836343 0.3491122,0.321671 0.9345465,0.321671 0.6069181,0 0.9560302,-0.321671 0.3491122,-0.321671 0.3491122,-0.932844 0,-0.616535 -0.365225,-0.948928 Q 8.6581223,17.424111 7.9384141,17.424111 H 7.1703674 Z"
     id="path6" />
  <path
     d="m 17.528063,18.110341 h 0.972144 v 1.04543 h -0.972144 v 1.737021 H 16.222922 V 19.155771 H 12.84459 L 12.807,18.362316 16.179961,13.086917 h 1.348109 z m -3.351476,0 h 2.046335 v -3.259596 l -0.09668,0.171558 z"
     id="path8" />
</svg>
