<?xml version="1.0" encoding="UTF-8" standalone="no"?>
<svg
   viewBox="0 0 24 24"
   width="24"
   height="24"
   version="1.1"
   id="svg10"
   xmlns="http://www.w3.org/2000/svg"
   xmlns:svg="http://www.w3.org/2000/svg">
  <defs
     id="defs14" />
  <path
     d="M 9.8432259,10.49661 H 8.3753937 V 4.8385994 L 6.6231374,5.3820529 V 4.1884869 L 9.6857768,3.0914221 h 0.1574491 z"
     id="path8841"
     style="font-weight:bold;font-size:10.4018px;line-height:1;font-family:Roboto;-inkscape-font-specification:'Roboto Bold';letter-spacing:0px;word-spacing:0px" />
  <path
     d="M 17.787924,10.49661 H 12.719078 V 9.4909671 l 2.392211,-2.54966 Q 15.603953,6.4029327 15.837587,6.0016914 16.0763,5.60045 16.0763,5.2398408 q 0,-0.4926634 -0.248871,-0.7720086 -0.248871,-0.2844243 -0.711061,-0.2844243 -0.497742,0 -0.787245,0.3453723 -0.284425,0.3402933 -0.284425,0.8989837 h -1.472911 q 0,-0.6755075 0.319978,-1.234198 0.325056,-0.5586904 0.91422,-0.8735886 Q 14.39515,3 15.141763,3 q 1.142776,0 1.772573,0.5485324 0.634875,0.5485325 0.634875,1.5490962 0,0.5485325 -0.284424,1.1173809 -0.284424,0.5688485 -0.975169,1.3256201 l -1.68115,1.7725723 h 3.179456 z"
     id="path8843"
     style="font-weight:bold;font-size:10.4018px;line-height:1;font-family:Roboto;-inkscape-font-specification:'Roboto Bold';letter-spacing:0px;word-spacing:0px" />
  <path
     d="m 7.7709923,16.550782 h 0.7821666 q 0.5586904,0 0.8278776,-0.279345 0.2691872,-0.279344 0.2691872,-0.741534 0,-0.446952 -0.2691872,-0.695823 -0.2641082,-0.248871 -0.7313765,-0.248871 -0.4215574,0 -0.7059816,0.233634 -0.2844242,0.228555 -0.2844242,0.599322 H 6.191422 q 0,-0.579006 0.3098193,-1.036117 0.3148982,-0.462189 0.8735887,-0.721218 0.5637694,-0.259029 1.2392769,-0.259029 1.1732499,0 1.8385991,0.563769 0.665349,0.558691 0.665349,1.544017 0,0.507901 -0.309819,0.934536 -0.309819,0.426636 -0.8126396,0.655192 0.6247166,0.223476 0.9294566,0.670428 0.30982,0.446952 0.30982,1.056433 0,0.985327 -0.721219,1.57957 -0.7161391,0.594244 -1.8995471,0.594244 -1.1072228,0 -1.8132044,-0.584086 Q 6.1,19.831819 6.1,18.871887 h 1.4678321 q 0,0.416478 0.3098192,0.680587 0.3148983,0.264109 0.7720087,0.264109 0.5231374,0 0.8177196,-0.274267 0.2996612,-0.279345 0.2996612,-0.736455 0,-1.107223 -1.2189609,-1.107223 H 7.7709923 Z"
     id="path8845"
     style="font-weight:bold;font-size:10.4018px;line-height:1;font-family:Roboto;-inkscape-font-specification:'Roboto Bold';letter-spacing:0px;word-spacing:0px" />
  <path
     d="m 17.061627,18.115115 h 0.838035 v 1.183408 h -0.838035 v 1.599887 h -1.467832 v -1.599887 h -3.032166 l -0.06603,-0.924378 3.082956,-4.870765 h 1.483069 z m -3.103272,0 h 1.63544 v -2.610608 l -0.0965,0.167607 z"
     id="path8847"
     style="font-weight:bold;font-size:10.4018px;line-height:1;font-family:Roboto;-inkscape-font-specification:'Roboto Bold';letter-spacing:0px;word-spacing:0px" />
</svg>
