<?xml version="1.0" encoding="UTF-8" standalone="no"?>
<!-- Created with Inkscape (http://www.inkscape.org/) -->

<svg
   width="24"
   height="24"
   viewBox="0 0 24 24"
   version="1.1"
   id="svg5"
   xml:space="preserve"
   sodipodi:docname="symbol_fullwidth_3_draw.svg"
   inkscape:version="1.2.1 (9c6d41e410, 2022-07-14, custom)"
   xmlns:inkscape="http://www.inkscape.org/namespaces/inkscape"
   xmlns:sodipodi="http://sodipodi.sourceforge.net/DTD/sodipodi-0.dtd"
   xmlns="http://www.w3.org/2000/svg"
   xmlns:svg="http://www.w3.org/2000/svg"
   xmlns:rdf="http://www.w3.org/1999/02/22-rdf-syntax-ns#"
   xmlns:cc="http://creativecommons.org/ns#"><sodipodi:namedview
     id="namedview16"
     pagecolor="#ffffff"
     bordercolor="#666666"
     borderopacity="1.0"
     inkscape:showpageshadow="2"
     inkscape:pageopacity="0.0"
     inkscape:pagecheckerboard="0"
     inkscape:deskcolor="#d1d1d1"
     showgrid="false"
     inkscape:lockguides="false"
     showguides="true"
     inkscape:zoom="22.125"
     inkscape:cx="4.5875706"
     inkscape:cy="8.0225989"
     inkscape:current-layer="svg5" /><defs
     id="defs2"><rect
       x="18.168632"
       y="6"
       width="42.377796"
       height="31.788918"
       id="rect245" /><rect
       x="-32.466617"
       y="7.0620552"
       width="39.744387"
       height="28.40722"
       id="rect1079" /><rect
       x="5.8289547"
       y="4.993913"
       width="55.265482"
       height="40.795892"
       id="rect988" /><rect
       x="-32.555566"
       y="-16.620977"
       width="82.291592"
       height="46.832914"
       id="rect349" /><rect
       x="-12.661734"
       y="-8.1061475"
       width="45.545857"
       height="39.634699"
       id="rect5511" /><rect
       x="-2.2584757"
       y="-4.5688248"
       width="79.057981"
       height="57.576606"
       id="rect5273" /><rect
       x="-35.920387"
       y="-14.16097"
       width="96.80662"
       height="61.51055"
       id="rect416" /><rect
       x="1.5548294"
       y="2.6350225"
       width="47.597928"
       height="17.848352"
       id="rect410" /><rect
       x="-28.695548"
       y="-14.415396"
       width="28.300703"
       height="44.267939"
       id="rect797" /><rect
       x="-30.554719"
       y="-11.754871"
       width="45.906062"
       height="29.526397"
       id="rect645" /><rect
       x="-24.72234"
       y="-8.4570561"
       width="59.511667"
       height="35.535136"
       id="rect566" /><rect
       x="-30.955103"
       y="-15.357842"
       width="68.189031"
       height="39.807102"
       id="rect560" /><rect
       x="-32.555566"
       y="-16.620977"
       width="82.291592"
       height="46.832914"
       id="rect349-1" /><rect
       x="-12.661734"
       y="-8.1061475"
       width="45.545857"
       height="39.634699"
       id="rect5511-5" /><rect
       x="-2.2584757"
       y="-4.5688248"
       width="79.057981"
       height="57.576606"
       id="rect5273-9" /><rect
       x="-35.920387"
       y="-14.16097"
       width="96.80662"
       height="61.51055"
       id="rect416-7" /><rect
       x="1.5548294"
       y="2.6350225"
       width="47.597928"
       height="17.848352"
       id="rect410-7" /><rect
       x="-30.55472"
       y="-11.754871"
       width="45.906063"
       height="29.526398"
       id="rect645-3" /></defs><metadata
     id="metadata132"><rdf:RDF><cc:Work
         rdf:about="" /></rdf:RDF></metadata><path
     d="M 0,20 H 3.5 V 18.75 H 1.75 V 5.25 H 3.5 V 4 H 0 Z"
     id="path1321"
     style="font-weight:bold;font-size:16px;font-family:'Noto Sans CJK SC';-inkscape-font-specification:'Noto Sans CJK SC, Bold';letter-spacing:-0.5px;word-spacing:0px;white-space:pre"
     sodipodi:nodetypes="ccccccccc" /><path
     d="m 11.596004,3.9768259 c -1.6,2.512 -4.528,4.576 -7.408,5.776 0.48,0.4480001 1.04,1.1040001 1.312,1.6000001 0.512,-0.256 1.024,-0.528 1.536,-0.832 v 1.088 h 3.888 v 1.856 h -3.664 v 1.664 h 3.664 v 1.936 h -5.776 v 1.712 h 13.68 v -1.712 h -5.888 v -1.936 h 3.808 v -1.664 h -3.808 v -1.856 h 3.952 v -1.024 c 0.496,0.288 1.008,0.576 1.536,0.848 0.256,-0.56 0.816,-1.216 1.28,-1.6480001 -2.544,-1.12 -4.784,-2.544 -6.688,-4.576 l 0.288,-0.432 z m -3.584,5.936 c 1.424,-0.944 2.768,-2.064 3.904,-3.328 1.232,1.328 2.512,2.4 3.92,3.328 z"
     id="path1323"
     style="font-weight:bold;font-size:16px;font-family:'Noto Sans CJK SC';-inkscape-font-specification:'Noto Sans CJK SC, Bold';letter-spacing:-0.5px;word-spacing:0px;white-space:pre;display:inline" /><path
     d="M 20.5,20 H 24 V 4 h -3.5 v 1.25 h 1.75 v 13.5 H 20.5 Z"
     id="path1325"
     style="font-weight:bold;font-size:16px;font-family:'Noto Sans CJK SC';-inkscape-font-specification:'Noto Sans CJK SC, Bold';letter-spacing:-0.5px;word-spacing:0px;white-space:pre"
     sodipodi:nodetypes="ccccccccc" /></svg>
