<?xml version="1.0" encoding="UTF-8" standalone="no"?>
<!-- Created with Inkscape (http://www.inkscape.org/) -->

<svg
   width="24"
   height="24"
   viewBox="0 0 24 24"
   version="1.1"
   id="svg5"
   xml:space="preserve"
   xmlns="http://www.w3.org/2000/svg"
   xmlns:svg="http://www.w3.org/2000/svg"
   xmlns:rdf="http://www.w3.org/1999/02/22-rdf-syntax-ns#"
   xmlns:cc="http://creativecommons.org/ns#"><defs
     id="defs2"><rect
       x="-12.661734"
       y="-8.1061475"
       width="45.545857"
       height="39.634699"
       id="rect5511" /><rect
       x="-2.2584757"
       y="-4.5688248"
       width="79.057981"
       height="57.576606"
       id="rect5273" /><rect
       x="-35.920387"
       y="-14.16097"
       width="96.80662"
       height="61.51055"
       id="rect416" /><rect
       x="1.5548294"
       y="2.6350225"
       width="47.597928"
       height="17.848352"
       id="rect410" /></defs><g
     id="layer1"><path
       d="m 20.320951,12.000001 -8.32095,8.32095 L 3.6790491,12 12,3.6790491 20.320951,12.000001 m 1.188707,-1.188708 -8.320951,-8.3209512 c -0.653789,-0.6537891 -1.723626,-0.6537891 -2.377415,0 L 2.4903418,10.811292 c -0.6537891,0.653789 -0.6537891,1.723626 0,2.377415 l 8.3209502,8.320952 c 0.65379,0.653788 1.723627,0.653788 2.377416,0 l 8.32095,-8.320952 c 0.65379,-0.653788 0.65379,-1.723625 0,-2.377414 z"
       id="path5548"
       style="stroke-width:0.999995" /></g><metadata
     id="metadata132"><rdf:RDF><cc:Work
         rdf:about="" /></rdf:RDF></metadata></svg>
