<?xml version="1.0" encoding="UTF-8" standalone="no"?>
<!-- Created with Inkscape (http://www.inkscape.org/) -->

<svg
   width="24"
   height="24"
   viewBox="0 0 24 24"
   version="1.1"
   id="svg5"
   xml:space="preserve"
   sodipodi:docname="symbol_number_punctuation_5_draw.svg"
   inkscape:version="1.2.1 (9c6d41e410, 2022-07-14, custom)"
   xmlns:inkscape="http://www.inkscape.org/namespaces/inkscape"
   xmlns:sodipodi="http://sodipodi.sourceforge.net/DTD/sodipodi-0.dtd"
   xmlns="http://www.w3.org/2000/svg"
   xmlns:svg="http://www.w3.org/2000/svg"
   xmlns:rdf="http://www.w3.org/1999/02/22-rdf-syntax-ns#"
   xmlns:cc="http://creativecommons.org/ns#"><sodipodi:namedview
     id="namedview16"
     pagecolor="#ffffff"
     bordercolor="#666666"
     borderopacity="1.0"
     inkscape:showpageshadow="2"
     inkscape:pageopacity="0.0"
     inkscape:pagecheckerboard="0"
     inkscape:deskcolor="#d1d1d1"
     showgrid="false"
     inkscape:lockguides="false"
     showguides="true"
     inkscape:zoom="14.75"
     inkscape:cx="14.745763"
     inkscape:cy="12.711864"
     inkscape:current-layer="svg5"><sodipodi:guide
       position="3.999913,5.5"
       orientation="0,-1"
       id="guide1008"
       inkscape:locked="false" /></sodipodi:namedview><defs
     id="defs2"><rect
       x="-32.466617"
       y="7.0620552"
       width="39.744387"
       height="28.40722"
       id="rect1079" /><rect
       x="5.8289547"
       y="4.993913"
       width="55.265482"
       height="40.795892"
       id="rect988" /><rect
       x="-32.555566"
       y="-16.620977"
       width="82.291592"
       height="46.832914"
       id="rect349" /><rect
       x="-12.661734"
       y="-8.1061475"
       width="45.545857"
       height="39.634699"
       id="rect5511" /><rect
       x="-2.2584757"
       y="-4.5688248"
       width="79.057981"
       height="57.576606"
       id="rect5273" /><rect
       x="-35.920387"
       y="-14.16097"
       width="96.80662"
       height="61.51055"
       id="rect416" /><rect
       x="1.5548294"
       y="2.6350225"
       width="47.597928"
       height="17.848352"
       id="rect410" /></defs><metadata
     id="metadata132"><rdf:RDF><cc:Work
         rdf:about="" /></rdf:RDF></metadata><path
     d="M 4.999826,18.5 H 3 V 8.4000005 l -3,0.9 v -1.7 L 4.7,6 h 0.300174 z"
     style="font-weight:500;font-size:17.3333px;line-height:100%;font-family:Roboto;-inkscape-font-specification:'Roboto, Medium';letter-spacing:-1.5px;word-spacing:0px;white-space:pre"
     id="path1083"
     sodipodi:nodetypes="cccccccc" /><path
     d="m 9.2893895,15 c 0,-0.750433 0.1532385,-1.478747 0.3394365,-1.924492 0.1861973,-0.445746 0.55295,-0.93381 1.100258,-1.464191 0.55295,-0.536023 0.902776,-0.916882 1.049477,-1.142576 0.225694,-0.344183 0.338541,-0.7165782 0.338541,-1.1171855 0,-0.5303807 -0.132595,-0.9338087 -0.397786,-1.210284 -0.259548,-0.2821173 -0.643228,-0.423176 -1.151039,-0.423176 -0.485242,0 -0.8773853,0.1382377 -1.17643,0.414713 C 9.098445,8.4036412 8.951744,8.7732152 8.951744,9.2415305 H 6.895107 C 6.9063937,8.2428345 7.2449347,7.4529054 7.91073,6.8717431 8.58217,6.290581 9.468019,6 10.568277,6 c 1.134113,0 2.01714,0.2877599 2.649083,0.8632796 0.637586,0.5755199 0.956379,1.3795549 0.956379,2.4121049 0,0.9197035 -0.428819,1.8253005 -1.286456,2.7167915 l -1.041014,1.024087 c -0.372395,0.423176 -0.624374,1.171239 -0.635658,1.983738 z"
     style="font-weight:500;font-size:17.3333px;line-height:100%;font-family:Roboto;-inkscape-font-specification:'Roboto, Medium';letter-spacing:-1.5px;word-spacing:0px;white-space:pre"
     id="path1085"
     sodipodi:nodetypes="csccscsccccscscccc" /><path
     d="M 19.827482,14.980083 H 17.931653 L 17.288425,18.5 h -1.421872 l 0.643228,-3.519917 h -1.955075 v -1.356457 h 2.20898 L 17.254571,10.93647 H 15.197934 V 9.5714291 h 2.310543 L 18.168632,6 h 1.413408 l -0.660155,3.5714291 h 1.904293 L 21.486333,6 h 1.413409 L 22.239587,9.5714291 H 24 v 1.3650419 h -2.014319 l -0.490885,2.687156 h 1.87044 v 1.356456 H 21.240891 L 20.597663,18.5 h -1.413408 z m -1.641923,-1.356457 h 1.895829 l 0.490885,-2.687156 h -1.89583 z"
     style="font-weight:500;font-size:17.3333px;line-height:100%;font-family:Roboto;-inkscape-font-specification:'Roboto, Medium';letter-spacing:-1.5px;word-spacing:0px;white-space:pre;stroke-width:1"
     id="path1087" /><ellipse
     style="fill:#000000;fill-opacity:1;stroke-width:2;stroke-linecap:round;stroke-miterlimit:3;stroke-opacity:0.57324"
     id="path1006"
     cx="10.375"
     cy="17.375"
     rx="1.1249999"
     ry="1.125" /></svg>
