<?xml version="1.0" encoding="UTF-8" standalone="no"?>
<!-- Created with Inkscape (http://www.inkscape.org/) -->

<svg
   width="24"
   height="24"
   viewBox="0 0 24 24"
   version="1.1"
   id="svg5"
   xml:space="preserve"
   xmlns="http://www.w3.org/2000/svg"
   xmlns:svg="http://www.w3.org/2000/svg"
   xmlns:rdf="http://www.w3.org/1999/02/22-rdf-syntax-ns#"
   xmlns:cc="http://creativecommons.org/ns#"><defs
     id="defs2"><rect
       x="5.8289547"
       y="4.993913"
       width="55.265482"
       height="40.795892"
       id="rect988" /><rect
       x="-32.555566"
       y="-16.620977"
       width="82.291592"
       height="46.832914"
       id="rect349" /><rect
       x="-12.661734"
       y="-8.1061475"
       width="45.545857"
       height="39.634699"
       id="rect5511" /><rect
       x="-2.2584757"
       y="-4.5688248"
       width="79.057981"
       height="57.576606"
       id="rect5273" /><rect
       x="-35.920387"
       y="-14.16097"
       width="96.80662"
       height="61.51055"
       id="rect416" /><rect
       x="1.5548294"
       y="2.6350225"
       width="47.597928"
       height="17.848352"
       id="rect410" /></defs><path
     d="M 11.99,2 C 6.47,2 2,6.48 2,12 2,17.52 6.47,22 11.99,22 17.52,22 22,17.52 22,12 22,6.48 17.52,2 11.99,2 Z M 12,20 C 7.58,20 4,16.42 4,12 4,7.58 7.58,4 12,4 c 4.42,0 8,3.58 8,8 0,4.42 -3.58,8 -8,8 z"
     id="path5495" /><metadata
     id="metadata132"><rdf:RDF><cc:Work
         rdf:about="" /></rdf:RDF></metadata><g
     aria-label="1"
     transform="translate(1.2969951,-1.9994069)"
     id="text986"
     style="font-size:16px;line-height:1.25;-inkscape-font-specification:'sans-serif, Normal';letter-spacing:0px;word-spacing:0px;white-space:pre;shape-inside:url(#rect988)"><path
       d="M 11.659609,19.706469 H 9.7689842 v -9.132812 l -2.789062,0.953125 V 9.9252194 L 11.417421,8.2924069 h 0.242188 z"
       style="font-weight:500;font-family:Roboto;-inkscape-font-specification:'Roboto, Medium'"
       id="path992" /></g></svg>
