<?xml version="1.0" encoding="UTF-8" standalone="no"?>
<!-- Created with Inkscape (http://www.inkscape.org/) -->

<svg
   width="24"
   height="24"
   viewBox="0 0 24 24"
   version="1.1"
   id="svg5"
   xml:space="preserve"
   sodipodi:docname="symbol_bracket_4_draw.svg"
   inkscape:version="1.2.1 (9c6d41e410, 2022-07-14, custom)"
   xmlns:inkscape="http://www.inkscape.org/namespaces/inkscape"
   xmlns:sodipodi="http://sodipodi.sourceforge.net/DTD/sodipodi-0.dtd"
   xmlns="http://www.w3.org/2000/svg"
   xmlns:svg="http://www.w3.org/2000/svg"
   xmlns:rdf="http://www.w3.org/1999/02/22-rdf-syntax-ns#"
   xmlns:cc="http://creativecommons.org/ns#"><sodipodi:namedview
     id="namedview16"
     pagecolor="#ffffff"
     bordercolor="#666666"
     borderopacity="1.0"
     inkscape:showpageshadow="2"
     inkscape:pageopacity="0.0"
     inkscape:pagecheckerboard="0"
     inkscape:deskcolor="#d1d1d1"
     showgrid="false"
     inkscape:lockguides="false"
     showguides="true"
     inkscape:zoom="14.75"
     inkscape:cx="15.932203"
     inkscape:cy="12.711864"
     inkscape:current-layer="svg5"><sodipodi:guide
       position="3.999913,5.5"
       orientation="0,-1"
       id="guide1008"
       inkscape:locked="false" /><sodipodi:guide
       position="21,12"
       orientation="-1,0"
       id="guide1189"
       inkscape:locked="false"
       inkscape:label=""
       inkscape:color="rgb(0,134,229)" /></sodipodi:namedview><defs
     id="defs2"><rect
       x="-9.8824359"
       y="-4.3958409"
       width="51.741803"
       height="26.378631"
       id="rect1128" /><rect
       x="-32.466617"
       y="7.0620552"
       width="39.744387"
       height="28.40722"
       id="rect1079" /><rect
       x="5.8289547"
       y="4.993913"
       width="55.265482"
       height="40.795892"
       id="rect988" /><rect
       x="-32.555566"
       y="-16.620977"
       width="82.291592"
       height="46.832914"
       id="rect349" /><rect
       x="-12.661734"
       y="-8.1061475"
       width="45.545857"
       height="39.634699"
       id="rect5511" /><rect
       x="-2.2584757"
       y="-4.5688248"
       width="79.057981"
       height="57.576606"
       id="rect5273" /><rect
       x="-35.920387"
       y="-14.16097"
       width="96.80662"
       height="61.51055"
       id="rect416" /><rect
       x="1.5548294"
       y="2.6350225"
       width="47.597928"
       height="17.848352"
       id="rect410" /></defs><metadata
     id="metadata132"><rdf:RDF><cc:Work
         rdf:about="" /></rdf:RDF></metadata><path
     d="M 3,11.942694 Q 3,10.287966 3.4440114,8.8051576 3.8880228,7.3151863 4.7473998,6.1475645 5.6067768,4.9727794 6.5664144,4.5 L 6.9101652,5.517192 Q 5.9003973,6.2836677 5.2701875,7.8595989 4.6471392,9.4283669 4.5898474,11.455587 l -0.00716,0.616046 q 0,2.170487 0.6087254,3.875359 0.6158868,1.697708 1.7187539,2.58596 L 6.5664159,19.5 Q 5.6067768,19.02722 4.7402383,17.845272 3.8808614,16.670487 3.4368499,15.194843 3,13.712035 3,11.942694 Z"
     style="font-weight:500;font-size:14.6667px;line-height:1.25;font-family:Roboto;-inkscape-font-specification:'Roboto Medium';letter-spacing:0px;word-spacing:0px;white-space:pre;stroke-width:1"
     id="path1182" /><path
     d="m 21,12.057307 q 0,1.590258 -0.43685,3.073066 -0.43685,1.475644 -1.324872,2.686246 Q 18.350255,19.034384 17.383456,19.5 l -0.343751,-0.967048 q 1.074221,-0.830946 1.697269,-2.535817 0.63021,-1.712035 0.63021,-3.904012 v -0.164756 q 0,-1.9914041 -0.544272,-3.624642 Q 18.27864,6.6633238 17.261711,5.6747852 L 17.039705,5.4742121 17.383456,4.5 q 0.916668,0.4441261 1.776045,1.5759313 0.859377,1.1318052 1.317712,2.5358166 0.458334,1.3968481 0.515626,2.8868191 z"
     style="font-weight:500;font-size:14.6667px;line-height:1.25;font-family:Roboto;-inkscape-font-specification:'Roboto Medium';letter-spacing:0px;word-spacing:0px;white-space:pre;stroke-width:1"
     id="path1184" /></svg>
