<?xml version="1.0" encoding="UTF-8" standalone="no"?>
<!-- Created with Inkscape (http://www.inkscape.org/) -->

<svg
   width="24"
   height="24"
   viewBox="0 0 24 24"
   version="1.1"
   id="svg5"
   inkscape:version="1.2.1 (9c6d41e410, 2022-07-14, custom)"
   sodipodi:docname="unicode_logo.svg"
   xmlns:inkscape="http://www.inkscape.org/namespaces/inkscape"
   xmlns:sodipodi="http://sodipodi.sourceforge.net/DTD/sodipodi-0.dtd"
   xmlns="http://www.w3.org/2000/svg"
   xmlns:svg="http://www.w3.org/2000/svg"
   xmlns:rdf="http://www.w3.org/1999/02/22-rdf-syntax-ns#"
   xmlns:cc="http://creativecommons.org/ns#">
  <sodipodi:namedview
     id="namedview7"
     pagecolor="#ffffff"
     bordercolor="#666666"
     borderopacity="1.0"
     inkscape:showpageshadow="false"
     inkscape:pageopacity="0.0"
     inkscape:pagecheckerboard="false"
     inkscape:deskcolor="#d1d1d1"
     inkscape:document-units="mm"
     showgrid="false"
     showborder="false"
     inkscape:zoom="17.011187"
     inkscape:cx="3.7622301"
     inkscape:cy="6.2018012"
     inkscape:current-layer="svg5" />
  <defs
     id="defs2" />
  <path
     id="path6"
     style="fill:#000000;fill-opacity:1;stroke-width:1"
     class="st1"
     d="M 20.542552,4.3 A 1.4576914,1.4576914 0 0 0 19.085105,5.7592198 1.4576914,1.4576914 0 0 0 20.542552,7.2166659 1.4576914,1.4576914 0 0 0 21.999999,5.7592198 1.4576914,1.4576914 0 0 0 20.542552,4.3 Z M 2.1684399,5.1670211 C 2.0551135,5.1670211 2,5.2318556 2,5.3585101 v 8.4911349 c 0,0.915501 0.1261155,1.71101 0.3794328,2.386526 0.2533183,0.675513 0.6197687,1.23466 1.0975182,1.679077 0.4777487,0.444418 1.0549814,0.777343 1.7304964,1.001774 0.675515,0.22443 1.4295764,0.338652 2.2606376,0.338652 0.7732861,0 1.5017677,-0.102305 2.1861701,-0.306738 0.6821799,-0.204432 1.2708809,-0.529435 1.7641839,-0.971631 0.493303,-0.444417 0.884888,-1.013257 1.173758,-1.710992 0.288873,-0.697736 0.432625,-1.538216 0.432625,-2.524823 V 8.3939709 c 0.115549,0.2466523 0.251357,0.5288612 0.411348,0.8510636 0.288871,0.5777435 0.615623,1.2136135 0.982269,1.9113485 0.366644,0.697737 0.754255,1.426217 1.16312,2.186171 0.408865,0.759954 0.806619,1.492855 1.193263,2.195035 0.386642,0.704402 0.739428,1.350414 1.054963,1.941489 0.31776,0.591076 0.566017,1.063356 0.748228,1.416667 0.05555,0.09777 0.149937,0.148937 0.276596,0.148937 h 2.68085 c 0.139991,0 0.210994,-0.06306 0.210994,-0.189718 V 8.8230484 c 0,-0.126658 -0.06305,-0.1914885 -0.189717,-0.1914885 h -2.026594 c -0.12666,0 -0.189717,0.055113 -0.189717,0.1684395 V 12.36915 c 0,0.493303 0.0017,0.914867 0.01064,1.265957 0.0066,0.35109 0.01461,0.652284 0.02127,0.898936 0.0066,0.246652 0.01239,0.457434 0.02127,0.632979 0.0066,0.175545 0.01241,0.335185 0.01241,0.475177 H 19.38297 C 19.256324,15.375548 19.069351,15.001602 18.822699,14.521632 18.576047,14.043882 18.292515,13.498403 17.968089,12.885107 17.643665,12.27181 17.294851,11.620053 16.923764,10.931206 16.550452,10.242359 16.180479,9.5588482 15.813834,8.8833327 15.44719,8.207818 15.092655,7.5600337 14.748231,6.9400705 14.403807,6.3201086 14.102613,5.7786015 13.849295,5.3141839 c -0.02888,-0.055548 -0.05444,-0.095249 -0.08334,-0.1152481 -0.02888,-0.019999 -0.084,-0.031918 -0.168439,-0.031918 H 12.856384 10.6383 10.617027 c -0.09777,0 -0.147164,0.04894 -0.147164,0.1489357 l 0.0054,0.00535 c -0.0022,0.013336 -0.0054,0.021678 -0.0054,0.037229 v 8.2570945 c 0,0.648849 -0.07276,1.186384 -0.221631,1.615248 -0.148878,0.428863 -0.3534896,0.773253 -0.6134738,1.035461 -0.2599843,0.259983 -0.5673495,0.446956 -0.9184398,0.560282 -0.3533128,0.113327 -0.7391501,0.16844 -1.1613476,0.16844 -1.0132725,0 -1.7673339,-0.301171 -2.2606377,-0.907801 C 4.8010229,15.48285 4.5549651,14.671452 4.5549651,13.658181 V 5.3354893 c 0,-0.1133264 -0.05511,-0.1684399 -0.1684398,-0.1684399 z" />
  <metadata
     id="metadata132">
    <rdf:RDF>
      <cc:Work
         rdf:about="" />
    </rdf:RDF>
  </metadata>
</svg>
