<?xml version="1.0" encoding="UTF-8" standalone="no"?>
<svg
   viewBox="0 0 24 24"
   width="24"
   height="24"
   version="1.1"
   xmlns="http://www.w3.org/2000/svg"
   xmlns:svg="http://www.w3.org/2000/svg">
  <path
     d="M 7.4999977,3 5.9999983,8.9999965 H 18 L 16.500002,3 11.999998,4.4999983 Z M 4.4999998,10.499996 3.0000001,11.999997 H 21 l -1.50002,-1.500001 z"/>
  <path
     d="M 6.7500002,13.499997 A 3.7500002,3.75 0 0 0 3,17.249995 3.7500002,3.75 0 0 0 6.7500002,20.999997 3.7500002,3.75 0 0 0 10.415039,17.999995 h 3.169923 A 3.7499985,3.7499985 0 0 0 17.250001,20.999997 3.7499985,3.7499985 0 0 0 21,17.249995 a 3.7499985,3.7499985 0 0 0 -3.749999,-3.749998 3.7499985,3.7499985 0 0 0 -3.665039,3 h -3.169923 a 3.7500002,3.75 0 0 0 -3.6650388,-3 z m 0,1.499999 a 2.2500002,2.25 0 0 1 2.2499995,2.249999 2.2500002,2.25 0 0 1 -2.2499995,2.25 A 2.2500002,2.25 0 0 1 4.5,17.249995 2.2500002,2.25 0 0 1 6.7500002,14.999996 Z m 10.5000008,0 a 2.2499991,2.2499991 0 0 1 2.25,2.249999 2.2499991,2.2499991 0 0 1 -2.25,2.25 2.2499991,2.2499991 0 0 1 -2.250001,-2.25 2.2499991,2.2499991 0 0 1 2.250001,-2.249999 z"/>
</svg>
